<svg width="168" height="75" viewBox="0 0 168 75" fill="none" xmlns="http://www.w3.org/2000/svg">
<g id="white-rgb">
<g id="Group">
<path id="fullLogo" d="M0.0436092 73.6451V73.6202L0.155562 72.5248C0.158678 72.464 0.184743 72.4066 0.228544 72.3641C0.272346 72.3216 0.330654 72.2971 0.391809 72.2956C0.426028 72.298 0.459548 72.3065 0.49085 72.3204C1.32365 72.6467 2.21509 72.7985 3.10948 72.7664C4.51431 72.7664 4.98659 72.4317 4.98659 71.8373C4.98659 71.2679 4.5268 70.94 2.87302 70.5004C0.833242 69.962 0 69.1388 0 67.7893C0 66.2295 1.21857 65.3503 3.70647 65.3503C4.6053 65.3394 5.50123 65.454 6.36804 65.691C6.42133 65.7064 6.4685 65.7379 6.50301 65.7812C6.53753 65.8245 6.55767 65.8773 6.56067 65.9325V65.9569L6.46708 67.0157C6.46616 67.0755 6.44146 67.1326 6.39837 67.1744C6.35528 67.2162 6.29731 67.2393 6.23716 67.2386C6.20981 67.2375 6.18268 67.2333 6.15632 67.2259C5.41558 67.019 4.64925 66.917 3.87992 66.923C2.46234 66.923 2.06436 67.2201 2.06436 67.7153C2.06436 68.2598 2.53685 68.5696 4.0289 69.0029C6.23062 69.6342 7.05199 70.4139 7.05199 71.7512C7.05199 73.4223 5.93251 74.3141 3.12104 74.3141C2.1344 74.3241 1.15229 74.1799 0.210579 73.8867C0.162942 73.8659 0.122084 73.8322 0.092591 73.7895C0.0630978 73.7469 0.0461361 73.6969 0.0436092 73.6451Z" fill="#1574C4"/>
<path id="fullLogo_2" d="M10.6881 67.0476H7.92663C7.86072 67.0474 7.79753 67.0214 7.75088 66.975C7.70424 66.9286 7.67794 66.8658 7.67773 66.8002V65.7478C7.67794 65.6821 7.70423 65.6192 7.75086 65.5728C7.7975 65.5264 7.86068 65.5002 7.92663 65.5H15.4887C15.5546 65.5004 15.6177 65.5266 15.6643 65.573C15.7109 65.6193 15.7372 65.6822 15.7376 65.7478V66.8002C15.7372 66.8657 15.7109 66.9285 15.6642 66.9748C15.6176 67.0212 15.5545 67.0473 15.4887 67.0476H12.7272V73.9191C12.7271 73.9846 12.7009 74.0474 12.6544 74.0938C12.608 74.1401 12.5449 74.1663 12.4791 74.1665H10.9362C10.8704 74.1663 10.8074 74.1401 10.7609 74.0938C10.7144 74.0474 10.6883 73.9846 10.6882 73.9191L10.6881 67.0476Z" fill="#1574C4"/>
<path id="fullLogo_3" d="M16.7988 65.7478C16.7987 65.6831 16.824 65.6209 16.8694 65.5746C16.9147 65.5283 16.9765 65.5015 17.0415 65.5H23.3531C23.4191 65.5002 23.4823 65.5264 23.5289 65.5728C23.5755 65.6192 23.6018 65.6821 23.602 65.7478V66.7938C23.6006 66.8585 23.5737 66.92 23.5272 66.9652C23.4806 67.0104 23.4181 67.0356 23.3531 67.0353H18.8387V68.9542H23.0422C23.1082 68.9544 23.1714 68.9805 23.2181 69.0269C23.2647 69.0734 23.291 69.1363 23.2911 69.202V70.2418C23.2909 70.3074 23.2646 70.3703 23.218 70.4167C23.1713 70.4631 23.1082 70.4893 23.0422 70.4895H18.8387V72.6309H23.4529C23.5178 72.6309 23.5801 72.6562 23.6264 72.7013C23.6728 72.7465 23.6996 72.8079 23.701 72.8724V73.9191C23.7009 73.9846 23.6748 74.0474 23.6283 74.0938C23.5818 74.1401 23.5187 74.1663 23.4529 74.1665H17.0415C16.9765 74.1651 16.9147 74.1384 16.8694 74.0921C16.824 74.0459 16.7987 73.9837 16.7988 73.9191V65.7478Z" fill="#1574C4"/>
<path id="fullLogo_4" d="M28.2694 74.1669C28.2006 74.1681 28.1329 74.1487 28.0752 74.1112C28.0176 74.0737 27.9725 74.0199 27.946 73.9566L24.4884 65.8409C24.4743 65.8076 24.4659 65.7721 24.4639 65.736C24.4644 65.7037 24.4714 65.6718 24.4846 65.6423C24.4978 65.6128 24.5168 65.5862 24.5406 65.5642C24.5644 65.5422 24.5924 65.5252 24.6229 65.5142C24.6535 65.5033 24.6859 65.4986 24.7183 65.5004H26.3912C26.4397 65.504 26.4865 65.5202 26.5268 65.5474C26.5672 65.5745 26.5997 65.6117 26.6211 65.6552L29.3017 72.5449L31.9825 65.6552C32.004 65.6117 32.0365 65.5745 32.0768 65.5474C32.1171 65.5202 32.1639 65.504 32.2125 65.5004H33.8853C33.9178 65.4985 33.9503 65.5032 33.9809 65.5142C34.0115 65.5251 34.0395 65.5421 34.0634 65.5641C34.0872 65.5861 34.1063 65.6127 34.1196 65.6422C34.1329 65.6718 34.1401 65.7037 34.1407 65.736C34.1383 65.7722 34.1297 65.8077 34.1152 65.8409L30.6577 73.9566C30.6312 74.0199 30.5862 74.0739 30.5285 74.1114C30.4708 74.1489 30.4031 74.1682 30.3342 74.1669H28.2694Z" fill="#1574C4"/>
<path id="fullLogo_5" d="M35.4893 65.7478C35.4892 65.6831 35.5146 65.621 35.5599 65.5747C35.6053 65.5284 35.667 65.5016 35.7319 65.5H42.0444C42.1103 65.5004 42.1733 65.5266 42.2197 65.573C42.2662 65.6194 42.2924 65.6822 42.2925 65.7478V66.7938C42.2911 66.8584 42.2644 66.9198 42.218 66.965C42.1716 67.0101 42.1093 67.0354 42.0444 67.0353H37.5292V68.9542H41.7329C41.7989 68.9544 41.8622 68.9805 41.9088 69.0269C41.9555 69.0734 41.9817 69.1363 41.9818 69.202V70.2418C41.9816 70.3074 41.9554 70.3703 41.9087 70.4167C41.8621 70.4631 41.7989 70.4893 41.7329 70.4895H37.5292V72.6309H42.1435C42.2085 72.6307 42.2709 72.6559 42.3174 72.7011C42.364 72.7462 42.3909 72.8078 42.3924 72.8724V73.9191C42.3922 73.9847 42.3659 74.0476 42.3192 74.0939C42.2726 74.1403 42.2094 74.1664 42.1435 74.1665H35.7319C35.667 74.1649 35.6054 74.1381 35.5601 74.0919C35.5147 74.0457 35.4893 73.9837 35.4893 73.9191V65.7478Z" fill="#1574C4"/>
<path id="fullLogo_6" d="M45.8034 67.9272V73.9196C45.8032 73.9852 45.7769 74.0481 45.7302 74.0944C45.6836 74.1408 45.6204 74.1669 45.5545 74.167H44.0751C44.0092 74.1669 43.946 74.1408 43.8993 74.0944C43.8527 74.0481 43.8264 73.9852 43.8262 73.9196V65.7483C43.8264 65.6826 43.8526 65.6197 43.8993 65.5733C43.9459 65.5268 44.0091 65.5007 44.0751 65.5005H46.1514C46.197 65.4977 46.2426 65.5065 46.284 65.5261C46.3253 65.5456 46.361 65.5752 46.3877 65.6122L50.4304 71.7407V65.7483C50.4305 65.6826 50.4568 65.6197 50.5035 65.5733C50.5501 65.5268 50.6133 65.5007 50.6793 65.5005H52.1586C52.2245 65.5007 52.2877 65.5268 52.3344 65.5733C52.381 65.6197 52.4073 65.6826 52.4075 65.7483V73.9196C52.4073 73.9852 52.381 74.0481 52.3344 74.0944C52.2877 74.1408 52.2245 74.1669 52.1586 74.167H50.0823C50.0367 74.1697 49.9911 74.1609 49.9498 74.1415C49.9086 74.122 49.8729 74.0925 49.8461 74.0557L45.8034 67.9272Z" fill="#1574C4"/>
<path id="fullLogo_7" d="M59.0014 74.1665C58.9365 74.1651 58.8747 74.1384 58.8294 74.0921C58.784 74.0458 58.7587 73.9837 58.7588 73.9191V65.7478C58.7586 65.6831 58.784 65.6209 58.8293 65.5746C58.8747 65.5283 58.9365 65.5015 59.0014 65.5H61.9056C65.1395 65.5 67.3286 66.9612 67.3286 69.8335C67.3286 72.7179 65.1395 74.1665 61.9056 74.1665L59.0014 74.1665ZM61.7438 67.0353H60.7989V72.6311H61.7439C64.0692 72.6311 65.2632 71.8387 65.2632 69.8335C65.2631 67.8399 64.0691 67.0353 61.7438 67.0353Z" fill="#1574C4"/>
<path id="fullLogo_8" d="M73.1287 74.3152C70.0319 74.3152 68.3281 72.3714 68.3281 69.8334C68.3281 67.2953 70.0319 65.3516 73.1287 65.3516C76.2254 65.3516 77.9303 67.2953 77.9303 69.8334C77.9303 72.3714 76.2255 74.3152 73.1287 74.3152ZM73.1287 72.7549C74.8697 72.7549 75.8647 71.7025 75.8647 69.8335C75.8647 67.9644 74.8697 66.9115 73.1287 66.9115C71.3876 66.9115 70.3926 67.9638 70.3926 69.8335C70.3926 71.7031 71.3875 72.7549 73.1287 72.7549Z" fill="#1574C4"/>
<path id="fullLogo_9" d="M79.3652 70.6879V65.7478C79.3656 65.6822 79.3919 65.6193 79.4385 65.573C79.4851 65.5266 79.5482 65.5004 79.6141 65.5H81.1625C81.2275 65.5015 81.2893 65.5283 81.3346 65.5746C81.38 65.6209 81.4053 65.6831 81.4052 65.7478V70.6072C81.4052 72.006 82.0767 72.755 83.6941 72.755C85.3107 72.755 85.9822 72.006 85.9822 70.6072V65.7478C85.982 65.6831 86.0073 65.6209 86.0527 65.5746C86.098 65.5283 86.1598 65.5015 86.2248 65.5H87.7732C87.8391 65.5002 87.9023 65.5264 87.9489 65.5728C87.9956 65.6192 88.0218 65.6821 88.0221 65.7478V70.6879C88.0221 73.1392 86.2555 74.3154 83.694 74.3154C81.1317 74.3152 79.3652 73.139 79.3652 70.6879Z" fill="#1574C4"/>
<path id="fullLogo_10" d="M95.3154 66.924C92.8647 66.924 91.5216 67.9886 91.5216 69.8334C91.5216 71.7645 92.9147 72.7427 95.2899 72.7427C95.7726 72.7546 96.2545 72.6962 96.7202 72.5695V70.7121H94.513C94.4481 70.7107 94.3863 70.684 94.341 70.6377C94.2956 70.5915 94.2703 70.5294 94.2704 70.4647V69.4245C94.2703 69.3599 94.2956 69.2978 94.341 69.2515C94.3863 69.2053 94.4481 69.1786 94.513 69.1772H98.2877C98.3535 69.1774 98.4166 69.2036 98.4632 69.2499C98.5099 69.2962 98.5362 69.359 98.5366 69.4245V73.5844C98.5378 73.6427 98.5212 73.7001 98.4889 73.7488C98.4566 73.7976 98.4101 73.8353 98.3557 73.8571C97.3395 74.1725 96.2797 74.3271 95.2153 74.3152C91.5959 74.3152 89.457 72.5198 89.457 69.8334C89.457 67.2704 91.4098 65.3516 95.0536 65.3516C96.1033 65.3505 97.1479 65.4963 98.1567 65.7848C98.208 65.8049 98.252 65.8397 98.2831 65.885C98.3142 65.9302 98.331 65.9837 98.3312 66.0385L98.2194 67.1466C98.216 67.2067 98.1896 67.2632 98.1457 67.3046C98.1018 67.3461 98.0437 67.3692 97.9832 67.3695C97.9512 67.3693 97.9195 67.363 97.8898 67.351C97.0623 67.064 96.1917 66.9197 95.3154 66.924Z" fill="#1574C4"/>
<path id="fullLogo_11" d="M100.282 65.7478C100.283 65.6822 100.309 65.6193 100.356 65.573C100.402 65.5266 100.465 65.5004 100.531 65.5H102.073C102.139 65.5002 102.202 65.5264 102.249 65.5728C102.296 65.6192 102.322 65.6821 102.322 65.7478V72.6311H107.235C107.3 72.6311 107.362 72.6564 107.409 72.7015C107.455 72.7466 107.482 72.808 107.483 72.8726V73.9191C107.483 73.9846 107.457 74.0474 107.411 74.0938C107.364 74.1401 107.301 74.1663 107.235 74.1665H100.531C100.465 74.1662 100.402 74.1401 100.356 74.0938C100.309 74.0474 100.283 73.9847 100.282 73.9191L100.282 65.7478Z" fill="#1574C4"/>
<path id="fullLogo_12" d="M110.616 72.2474L109.926 74.0117C109.906 74.0549 109.874 74.092 109.835 74.1192C109.796 74.1464 109.75 74.1627 109.702 74.1665H108.004C107.975 74.1689 107.945 74.1651 107.916 74.1552C107.888 74.1454 107.863 74.1297 107.841 74.1092C107.819 74.0888 107.802 74.064 107.791 74.0365C107.779 74.009 107.774 73.9795 107.774 73.9497C107.774 73.9072 107.783 73.8651 107.799 73.8258L111.276 65.655C111.295 65.6077 111.329 65.5674 111.373 65.5398C111.416 65.5121 111.467 65.4983 111.518 65.5002H113.707C113.759 65.4983 113.81 65.5121 113.853 65.5398C113.896 65.5674 113.93 65.6077 113.95 65.655L117.426 73.8258C117.443 73.8649 117.451 73.9071 117.451 73.9497C117.452 73.9795 117.446 74.0092 117.435 74.0367C117.423 74.0643 117.406 74.0891 117.384 74.1096C117.363 74.13 117.337 74.1457 117.308 74.1555C117.28 74.1653 117.25 74.1691 117.22 74.1665H115.523C115.475 74.1628 115.429 74.1465 115.39 74.1193C115.351 74.0921 115.319 74.0549 115.299 74.0117L114.609 72.2474H110.616ZM114.018 70.712L112.612 67.1221L111.207 70.712H114.018Z" fill="#1574C4"/>
<path id="fullLogo_13" d="M118.308 73.6453V73.6204L118.419 72.525C118.423 72.4642 118.449 72.4068 118.492 72.3643C118.536 72.3218 118.595 72.2973 118.656 72.2957C118.69 72.2982 118.723 72.3066 118.755 72.3206C119.588 72.6468 120.479 72.7986 121.373 72.7665C122.778 72.7665 123.25 72.4318 123.25 71.8374C123.25 71.268 122.791 70.9402 121.137 70.5006C119.097 69.962 118.264 69.1388 118.264 67.7893C118.264 66.2295 119.482 65.3503 121.97 65.3503C122.869 65.3394 123.765 65.4541 124.632 65.691C124.685 65.7064 124.732 65.7379 124.767 65.7812C124.801 65.8245 124.821 65.8773 124.824 65.9325V65.9569L124.731 67.0157C124.73 67.0755 124.705 67.1326 124.662 67.1744C124.619 67.2162 124.561 67.2393 124.501 67.2386C124.474 67.2375 124.447 67.2333 124.42 67.2259C123.679 67.019 122.913 66.9171 122.144 66.923C120.726 66.923 120.328 67.2201 120.328 67.7153C120.328 68.2598 120.801 68.5696 122.293 69.0029C124.495 69.6342 125.316 70.4139 125.316 71.7512C125.316 73.4223 124.196 74.3141 121.385 74.3141C120.398 74.3241 119.416 74.1799 118.474 73.8867C118.427 73.8659 118.386 73.8322 118.357 73.7896C118.327 73.7469 118.31 73.697 118.308 73.6453Z" fill="#1574C4"/>
<path id="fullLogo_14" d="M136.168 74.3139C132.759 74.3139 130.795 72.6054 130.795 69.832C130.795 67.0959 132.759 65.3502 136.131 65.3502C136.97 65.3401 137.806 65.4549 138.611 65.6909C138.663 65.7123 138.707 65.7484 138.738 65.7947C138.769 65.841 138.786 65.8953 138.786 65.951L138.686 67.0091C138.683 67.0693 138.656 67.1259 138.612 67.1674C138.568 67.2088 138.51 67.232 138.45 67.2321C138.418 67.2318 138.386 67.2255 138.357 67.2136C137.716 67 137.043 66.8974 136.367 66.9101C134.078 66.9101 132.859 68.0245 132.859 69.8321C132.859 71.7261 134.153 72.7536 136.417 72.7536C137.097 72.7671 137.773 72.656 138.412 72.4256C138.444 72.4135 138.478 72.4072 138.512 72.4071C138.573 72.4073 138.631 72.4304 138.675 72.4717C138.719 72.5131 138.745 72.5696 138.749 72.6296L138.848 73.7318C138.845 73.7843 138.827 73.8348 138.796 73.8775C138.765 73.9203 138.723 73.9535 138.674 73.9733C137.86 74.21 137.016 74.3247 136.168 74.3139Z" fill="#1574C4"/>
<path id="fullLogo_15" d="M144.419 74.3152C141.321 74.3152 139.617 72.3714 139.617 69.8334C139.617 67.2953 141.321 65.3516 144.419 65.3516C147.516 65.3516 149.219 67.2953 149.219 69.8334C149.219 72.3714 147.516 74.3152 144.419 74.3152ZM144.419 72.7549C146.16 72.7549 147.155 71.7025 147.155 69.8335C147.155 67.9644 146.16 66.9115 144.419 66.9115C142.677 66.9115 141.682 67.9638 141.682 69.8335C141.682 71.7031 142.677 72.7549 144.419 72.7549Z" fill="#1574C4"/>
<path id="fullLogo_16" d="M156.364 70.6692L158.771 73.7703C158.807 73.8164 158.826 73.873 158.827 73.9313C158.827 73.9632 158.82 73.9946 158.807 74.0238C158.794 74.053 158.776 74.0793 158.752 74.1012C158.729 74.1231 158.702 74.1402 158.672 74.1514C158.642 74.1626 158.61 74.1677 158.578 74.1665H156.955C156.895 74.1699 156.836 74.1587 156.781 74.1338C156.727 74.109 156.68 74.0713 156.643 74.024L154.374 70.9477H152.695V73.9191C152.695 73.9837 152.67 74.0457 152.624 74.0919C152.579 74.1381 152.517 74.1649 152.453 74.1665H150.898C150.833 74.1651 150.771 74.1384 150.726 74.0921C150.68 74.0458 150.655 73.9837 150.655 73.9191V65.7478C150.655 65.6831 150.68 65.6209 150.726 65.5746C150.771 65.5283 150.833 65.5015 150.898 65.5H154.38C156.613 65.5 158.254 66.3792 158.254 68.2239C158.255 69.3567 157.638 70.2234 156.364 70.6692ZM154.225 67.0602H152.695V69.3875H154.224C155.506 69.3875 156.19 69.0284 156.19 68.2239C156.19 67.4193 155.506 67.0602 154.225 67.0602Z" fill="#1574C4"/>
<path id="fullLogo_17" d="M163.644 65.5C166.1 65.5 167.611 66.5031 167.611 68.3727C167.611 70.2355 166.1 71.2445 163.644 71.2445H162.127V73.9191C162.127 73.9847 162.1 74.0476 162.054 74.094C162.007 74.1403 161.944 74.1664 161.878 74.1665H160.336C160.27 74.1663 160.207 74.1401 160.16 74.0938C160.114 74.0475 160.087 73.9847 160.087 73.9191V65.7478C160.087 65.6822 160.114 65.6194 160.16 65.573C160.207 65.5266 160.27 65.5004 160.336 65.5001L163.644 65.5ZM162.127 69.6847H163.445C164.838 69.6847 165.547 69.3631 165.547 68.3727C165.547 67.3822 164.838 67.0603 163.445 67.0603H162.127V69.6847Z" fill="#1574C4"/>
<path id="fullLogo_18" d="M166.918 72.3086C167.64 72.3086 168 72.6428 168 73.3112C168 73.9797 167.64 74.314 166.918 74.3143C166.198 74.3143 165.837 73.98 165.837 73.3112C165.837 72.6425 166.197 72.3083 166.918 72.3086Z" fill="#1574C4"/>
<g id="logoMark">
<path id="logoMark &#60;PathItem&#62;" d="M83.4835 60.1812C114.598 60.1812 139.822 46.7092 139.822 30.0906C139.822 13.472 114.598 0 83.4835 0C52.3689 0 27.1455 13.472 27.1455 30.0906C27.1455 46.7092 52.3689 60.1812 83.4835 60.1812Z" fill="#1574C4"/>
<path id="logoMark &#60;PathItem&#62;_2" d="M98.2318 40.056C99.5818 38.7032 100.647 37.0961 101.366 35.3287C102.085 33.5612 102.442 31.6689 102.418 29.7623C102.42 29.4749 102.44 29.1879 102.48 28.9033C102.906 22.9645 107.664 19.3373 116.269 19.3373C118.925 19.2905 121.573 19.6565 124.116 20.4222C124.234 20.4655 124.358 20.4879 124.483 20.4885C124.711 20.4971 124.934 20.4198 125.107 20.272C125.28 20.1242 125.39 19.9168 125.416 19.6914L125.808 15.907C125.802 15.7011 125.732 15.5019 125.61 15.336C125.487 15.17 125.317 15.045 125.121 14.9775C121.931 14.1319 118.639 13.7224 115.337 13.7602C102.413 13.7602 94.7509 19.6718 94.3365 28.9921C94.3281 29.1995 94.3202 29.6864 94.3077 30.006C94.2988 31.5338 93.9774 33.0438 93.3631 34.4439C92.1556 37.0574 89.8882 38.4515 87.0638 39.2035C85.1018 39.6805 83.0891 39.9198 81.0695 39.9161C79.6601 39.945 78.2495 39.9217 76.7669 39.9217V22.5684C76.761 22.3864 76.6827 22.2141 76.5493 22.0894C76.4159 21.9647 76.2383 21.8978 76.0554 21.9034H69.4401C69.2572 21.8978 69.0795 21.9647 68.9461 22.0894C68.8127 22.2141 68.7344 22.3864 68.7285 22.5684C68.7285 24.909 68.7285 27.2496 68.7285 29.5903C68.7285 34.4845 68.7287 39.3788 68.7291 44.2732C68.7408 44.6293 68.894 44.9662 69.1549 45.21C69.4159 45.4539 69.7634 45.5847 70.1211 45.5739C73.711 45.5752 77.3009 45.5842 80.8907 45.5715C84.434 45.638 87.9654 45.1427 91.3523 44.1041C93.3537 43.4806 95.2355 42.5266 96.9192 41.2822C96.9333 41.2699 96.9409 41.258 96.9555 41.246C97.409 40.8618 97.8345 40.4651 98.2318 40.056Z" fill="white"/>
<path id="logoMark &#60;PathItem&#62;_3" d="M92.3274 15.5056C88.7096 14.1184 84.8999 13.6997 81.0251 13.6836L53.574 13.6918L53.5636 13.6985C44.0479 13.7909 39.373 16.9175 39.373 22.4146C39.373 27.2423 42.6591 30.1871 50.7024 32.1137C57.2257 33.6859 59.0401 34.8592 59.0401 36.8967C59.0401 39.0224 57.1762 40.2183 51.6343 40.2183C47.6129 40.2183 44.2775 39.7752 41.3102 38.624C41.1849 38.5735 41.0524 38.5435 40.9175 38.5351C40.6875 38.5315 40.4645 38.6135 40.2921 38.7652C40.1197 38.9168 40.0104 39.127 39.9857 39.3546L39.5446 43.2741V43.3623C39.5601 43.5543 39.6307 43.7378 39.748 43.891C39.8654 44.0441 40.0245 44.1604 40.2064 44.226C43.9394 45.277 47.8042 45.7915 51.6834 45.7538C62.7673 45.7538 67.1814 42.5652 67.1814 36.5863C67.1814 31.8032 63.9447 29.0135 55.2633 26.7547C49.3779 25.2046 47.5143 24.0975 47.5143 22.1489C47.5143 20.4503 48.9675 19.357 54.0149 19.2696H78.5911V19.2563C81.3333 19.1576 84.077 19.4011 86.7584 19.981C89.4953 20.6527 91.7406 21.9166 93.0618 24.2673C93.1237 24.3774 93.1835 24.49 93.2414 24.605C93.2794 24.4871 93.3192 24.3696 93.3606 24.2523C94.1775 21.9791 95.4727 19.9058 97.1597 18.1711C95.6918 17.0472 94.0629 16.1487 92.3274 15.5056Z" fill="white"/>
<path id="logoMark &#60;PathItem&#62;_4" d="M125.661 39.7882C125.635 39.563 125.525 39.3557 125.352 39.2079C125.18 39.0601 124.957 38.9828 124.729 38.9915C124.596 38.992 124.463 39.0144 124.336 39.0577C121.797 39.8843 119.137 40.2808 116.465 40.2304C110.066 40.2304 105.642 38.3357 103.645 34.7709C103.593 34.6785 103.543 34.5849 103.495 34.4902C103.459 34.6103 103.422 34.73 103.384 34.8492C102.609 37.2409 101.293 39.4235 99.5371 41.2289C103.156 44.1665 108.551 45.8082 115.484 45.8082C118.818 45.8487 122.143 45.4392 125.367 44.5909C125.553 44.5293 125.717 44.4148 125.839 44.2614C125.961 44.108 126.036 43.9225 126.053 43.7277L125.661 39.7882Z" fill="white"/>
</g>
</g>
</g>
</svg>
